<?xml version="1.0" standalone="no"?>
<svg xmlns:xlink="http://www.w3.org/1999/xlink" id="wave" style="transform:rotate(180deg); transition: 0.3s" viewBox="0 0 1440 430" version="1.1" xmlns="http://www.w3.org/2000/svg"><defs><linearGradient id="sw-gradient-0" x1="0" x2="0" y1="1" y2="0"><stop stop-color="#047857" offset="0%"/><stop stop-color="#047857" offset="100%"/></linearGradient></defs><path style="transform:translate(0, 0px); opacity:1" fill="url(#sw-gradient-0)" d="M0,258L1440,387L2880,86L4320,215L5760,86L7200,86L8640,258L10080,0L11520,258L12960,172L14400,387L15840,301L17280,172L18720,344L20160,258L21600,258L23040,129L24480,215L25920,129L27360,301L28800,129L30240,387L31680,387L33120,215L34560,129L34560,430L33120,430L31680,430L30240,430L28800,430L27360,430L25920,430L24480,430L23040,430L21600,430L20160,430L18720,430L17280,430L15840,430L14400,430L12960,430L11520,430L10080,430L8640,430L7200,430L5760,430L4320,430L2880,430L1440,430L0,430Z"/></svg>